:FULLY-SPECIFIED
:FORCE-ALL-JOINTS-BE-3DOF
:DEGREES
2548
root 4.06184 13.7198 -23.9153 962.176 78.0776 -120.913
lfemur -39.0486 11.5277 -13.1714
ltibia 89.5605 0 0
lfoot -27.8228 26.7281 0
ltoes -38.8733 0 0
rfemur -57.4248 -23.2494 10.777
rtibia 66.4596 0 0
rfoot 0.53512 4.8284 0
rtoes 8.3606 0 0
lowerback 16.9943 -0.204772 -3.53876
upperback -0.989472 -0.65064 2.98217
thorax -10.6102 0.0107281 5.45556
lowerneck 5.26013 -14.8215 -15.2893
upperneck -0.0564773 -20.7695 15.4718
head 2.33515 -10.5391 6.37137
lclavicle -2.6133e-14 1.74549e-14 0
lhumerus -50.6085 -47.2501 114.402
lradius 105.943 0 0
lwrist 80.9942 0 0
lhand 8.75052 400.533 0
lfingers 7.12502 0 0
lthumb 33.9424 -652.643 0
rclavicle -2.6133e-14 1.74549e-14 0
rhumerus 14.7036 -10.8127 -55.8721
rradius 77.353 0 0
rwrist 25.3631 0 0
rhand -36.7012 -407.48 0
rfingers 7.12502 0 0
rthumb -9.78423 282.854 0
2549
root 4.02583 13.7287 -24.0544 965.947 76.61 -117.287
lfemur -39.3473 11.508 -13.5525
ltibia 89.3972 0 0
lfoot -27.9327 26.9969 0
ltoes -38.8122 0 0
rfemur -57.586 -22.8856 11.1241
rtibia 67.4628 0 0
rfoot 0.266399 3.98947 0
rtoes 8.44411 0 0
lowerback 17.0765 -0.143764 -3.5914
upperback -0.965611 -0.589699 2.94382
thorax -10.6404 0.0415006 5.42813
lowerneck 5.30562 -14.9118 -15.3523
upperneck -0.0976483 -20.9028 15.6805
head 2.35202 -10.6085 6.43728
lclavicle -2.55052e-14 1.77712e-14 0
lhumerus -50.123 -47.8534 114.444
lradius 105.453 0 0
lwrist 80.8106 0 0
lhand 8.72434 400.654 0
lfingers 7.12502 0 0
lthumb 33.9189 -652.5 0
rclavicle -2.55052e-14 1.77712e-14 0
rhumerus 16.4552 -9.57431 -54.6646
rradius 77.777 0 0
rwrist 24.6944 0 0
rhand -36.208 -407.133 0
rfingers 7.12502 0 0
rthumb -9.30815 283.195 0
2550
root 3.991 13.7371 -24.1928 969.661 75.188 -113.705
lfemur -39.6488 11.5095 -13.9428
ltibia 89.2192 0 0
lfoot -28.0711 27.2692 0
ltoes -38.7571 0 0
rfemur -57.7532 -22.5311 11.4702
rtibia 68.4911 0 0
rfoot -0.00802399 3.14893 0
rtoes 8.539 0 0
lowerback 17.1591 -0.0823851 -3.65219
upperback -0.942843 -0.529995 2.90527
thorax -10.6718 0.0722259 5.40553
lowerneck 5.35604 -15.0142 -15.4244
upperneck -0.136671 -21.0531 15.896
head 2.37119 -10.6865 6.50568
lclavicle -2.48118e-14 1.80162e-14 0
lhumerus -49.7049 -48.4526 114.534
lradius 104.946 0 0
lwrist 80.6503 0 0
lhand 8.71785 400.78 0
lfingers 7.12502 0 0
lthumb 33.9143 -652.354 0
rclavicle -2.48118e-14 1.80162e-14 0
rhumerus 18.2481 -8.34193 -53.438
rradius 78.22 0 0
rwrist 24.0461 0 0
rhand -35.7136 -406.79 0
rfingers 7.12502 0 0
rthumb -8.83082 283.53 0
2551
root 3.95722 13.745 -24.3305 973.321 73.8054 -110.163
lfemur -39.9521 11.5316 -14.3411
ltibia 89.0278 0 0
lfoot -28.2355 27.544 0
ltoes -38.7071 0 0
rfemur -57.9253 -22.1859 11.8155
rtibia 69.5417 0 0
rfoot -0.288086 2.30733 0
rtoes 8.64394 0 0
lowerback 17.2419 -0.0207255 -3.72058
upperback -0.92113 -0.471517 2.86662
thorax -10.7041 0.102873 5.38752
lowerneck 5.41067 -15.127 -15.5043
upperneck -0.173485 -21.2183 16.1174
head 2.39248 -10.7719 6.57616
lclavicle -2.40573e-14 1.81926e-14 0
lhumerus -49.3457 -49.0477 114.667
lradius 104.425 0 0
lwrist 80.5106 0 0
lhand 8.72856 400.911 0
lfingers 7.12502 0 0
lthumb 33.9263 -652.205 0
rclavicle -2.40573e-14 1.81926e-14 0
rhumerus 20.0766 -7.11521 -52.1956
rradius 78.6808 0 0
rwrist 23.4177 0 0
rhand -35.2182 -406.453 0
rfingers 7.12502 0 0
rthumb -8.35256 283.861 0
2552
root 3.92435 13.7526 -24.4677 976.93 72.4555 -106.66
lfemur -40.2565 11.5732 -14.7461
ltibia 88.8241 0 0
lfoot -28.4232 27.8202 0
ltoes -38.6612 0 0
rfemur -58.1012 -21.8504 12.1601
rtibia 70.6118 0 0
rfoot -0.573726 1.46518 0
rtoes 8.75765 0 0
lowerback 17.3247 0.0411248 -3.79599
upperback -0.90044 -0.414256 2.82792
thorax -10.7373 0.133411 5.37385
lowerneck 5.4688 -15.2487 -15.5911
upperneck -0.20803 -21.3962 16.3435
head 2.41568 -10.8638 6.64833
lclavicle -2.32463e-14 1.83031e-14 0
lhumerus -49.037 -49.6384 114.836
lradius 103.891 0 0
lwrist 80.3891 0 0
lhand 8.75398 401.047 0
lfingers 7.12502 0 0
lthumb 33.9525 -652.052 0
rclavicle -2.32463e-14 1.83031e-14 0
rhumerus 21.9349 -5.89382 -50.941
rradius 79.1577 0 0
rwrist 22.8086 0 0
rhand -34.7222 -406.12 0
rfingers 7.12502 0 0
rthumb -7.87369 284.188 0
2553
root 3.89226 13.7599 -24.6043 980.492 71.1319 -103.195
lfemur -40.5611 11.6336 -15.1563
ltibia 88.6094 0 0
lfoot -28.6317 28.0968 0
ltoes -38.6186 0 0
rfemur -58.2799 -21.5245 12.5042
rtibia 71.6986 0 0
rfoot -0.864881 0.62302 0
rtoes 8.87879 0 0
lowerback 17.4075 0.103076 -3.87788
upperback -0.880735 -0.358201 2.78926
thorax -10.7713 0.163808 5.36427
lowerneck 5.52971 -15.378 -15.6836
upperneck -0.240247 -21.5847 16.5731
head 2.44062 -10.9611 6.72178
lclavicle -2.23835e-14 1.83504e-14 0
lhumerus -48.7703 -50.2244 115.035
lradius 103.348 0 0
lwrist 80.2831 0 0
lhand 8.79163 401.187 0
lfingers 7.12502 0 0
lthumb 33.9904 -651.896 0
rclavicle -2.23835e-14 1.83504e-14 0
rhumerus 23.8175 -4.67746 -49.6774
rradius 79.6494 0 0
rwrist 22.2184 0 0
rhand -34.2259 -405.79 0
rfingers 7.12502 0 0
rthumb -7.39451 284.511 0
2554
root 3.8608 13.767 -24.7404 984.009 69.8282 -99.7657
lfemur -40.8651 11.7117 -15.5705
ltibia 88.3849 0 0
lfoot -28.8584 28.3726 0
ltoes -38.5782 0 0
rfemur -58.4603 -21.2086 12.848
rtibia 72.7993 0 0
rfoot -1.16149 -0.218615 0
rtoes 9.00606 0 0
lowerback 17.4901 0.165038 -3.96568
upperback -0.861982 -0.303343 2.7507
thorax -10.806 0.194034 5.35854
lowerneck 5.59269 -15.5131 -15.7808
upperneck -0.270073 -21.7815 16.8052
head 2.46708 -11.0626 6.79611
lclavicle -2.14733e-14 1.83372e-14 0
lhumerus -48.5373 -50.8055 115.259
lradius 102.798 0 0
lwrist 80.1902 0 0
lhand 8.83901 401.33 0
lfingers 7.12502 0 0
lthumb 34.0376 -651.737 0
rclavicle -2.14733e-14 1.83372e-14 0
rhumerus 25.7185 -3.4658 -48.4082
rradius 80.1543 0 0
rwrist 21.6465 0 0
rhand -33.7296 -405.463 0
rfingers 7.12502 0 0
rthumb -6.91535 284.832 0
2555
root 3.82985 13.7739 -24.8761 987.485 68.5377 -96.3714
lfemur -41.1675 11.8069 -15.9874
ltibia 88.1518 0 0
lfoot -29.1008 28.6467 0
ltoes -38.5393 0 0
rfemur -58.6412 -20.9026 13.1916
rtibia 73.9109 0 0
rfoot -1.46349 -1.0592 0
rtoes 9.13816 0 0
lowerback 17.5723 0.22692 -4.05883
upperback -0.844144 -0.249671 2.71231
thorax -10.8412 0.224058 5.3564
lowerneck 5.65703 -15.6527 -15.8814
upperneck -0.297451 -21.9847 17.0386
head 2.49489 -11.1672 6.87091
lclavicle -2.05204e-14 1.82663e-14 0
lhumerus -48.3295 -51.3814 115.5
lradius 102.243 0 0
lwrist 80.1077 0 0
lhand 8.89365 401.478 0
lfingers 7.12502 0 0
lthumb 34.0919 -651.575 0
rclavicle -2.05204e-14 1.82663e-14 0
rhumerus 27.6325 -2.25851 -47.1369
rradius 80.6711 0 0
rwrist 21.0924 0 0
rhand -33.2336 -405.139 0
rfingers 7.12502 0 0
rthumb -6.43651 285.15 0
2556
root 3.79926 13.7807 -25.0114 990.923 67.254 -93.0103
lfemur -41.4677 11.918 -16.4056
ltibia 87.9114 0 0
lfoot -29.3561 28.9179 0
ltoes -38.5007 0 0
rfemur -58.8217 -20.6068 13.5353
rtibia 75.0308 0 0
rfoot -1.77081 -1.89819 0
rtoes 9.27377 0 0
lowerback 17.6541 0.288633 -4.15678
upperback -0.827186 -0.197177 2.67418
thorax -10.8769 0.253848 5.35763
lowerneck 5.72202 -15.7951 -15.9845
upperneck -0.322319 -22.192 17.2723
head 2.52385 -11.2739 6.94579
lclavicle -1.95293e-14 1.81402e-14 0
lhumerus -48.1386 -51.952 115.752
lradius 101.685 0 0
lwrist 80.0331 0 0
lhand 8.95304 401.628 0
lfingers 7.12502 0 0
lthumb 34.1507 -651.41 0
rclavicle -1.95293e-14 1.81402e-14 0
rhumerus 29.5537 -1.05529 -45.8668
rradius 81.1981 0 0
rwrist 20.5555 0 0
rhand -32.7383 -404.816 0
rfingers 7.12502 0 0
rthumb -5.95831 285.466 0
2557
root 3.76889 13.7875 -25.1464 994.327 65.9707 -89.6808
lfemur -41.7646 12.0444 -16.8238
ltibia 87.6649 0 0
lfoot -29.6218 29.1853 0
ltoes -38.4617 0 0
rfemur -59.0006 -20.3214 13.8791
rtibia 76.156 0 0
rfoot -2.08341 -2.73507 0
rtoes 9.41157 0 0
lowerback 17.7354 0.350087 -4.25895
upperback -0.811074 -0.14585 2.63636
thorax -10.9129 0.283374 5.36196
lowerneck 5.78695 -15.939 -16.089
upperneck -0.344617 -22.4013 17.505
head 2.55375 -11.3816 7.02034
lclavicle -1.85045e-14 1.79617e-14 0
lhumerus -47.956 -52.5169 116.01
lradius 101.127 0 0
lwrist 79.9638 0 0
lhand 9.01471 401.782 0
lfingers 7.12502 0 0
lthumb 34.2117 -651.242 0
rclavicle -1.85045e-14 1.79617e-14 0
rhumerus 31.4763 0.144194 -44.6013
rradius 81.7341 0 0
rwrist 20.0354 0 0
rhand -32.2439 -404.495 0
rfingers 7.12502 0 0
rthumb -5.48106 285.782 0
2558
root 3.73862 13.7944 -25.2812 997.698 64.6813 -86.3814
lfemur -42.0576 12.1851 -17.2407
ltibia 87.4135 0 0
lfoot -29.8954 29.4476 0
ltoes -38.4213 0 0
rfemur -59.1768 -20.0464 14.2232
rtibia 77.2839 0 0
rfoot -2.4012 -3.5693 0
rtoes 9.55026 0 0
lowerback 17.8159 0.411191 -4.3648
upperback -0.795772 -0.0956792 2.59895
thorax -10.9492 0.312605 5.36915
lowerneck 5.85109 -16.0826 -16.1937
upperneck -0.364285 -22.6105 17.7358
head 2.58442 -11.4892 7.09415
lclavicle -1.74507e-14 1.77335e-14 0
lhumerus -47.7735 -53.076 116.266
lradius 100.571 0 0
lwrist 79.8974 0 0
lhand 9.07617 401.939 0
lfingers 7.12502 0 0
lthumb 34.2725 -651.071 0
rclavicle -1.74507e-14 1.77335e-14 0
rhumerus 33.3948 1.34025 -43.3438
rradius 82.2774 0 0
rwrist 19.5314 0 0
rhand -31.7509 -404.174 0
rfingers 7.12502 0 0
rthumb -5.00507 286.097 0
2559
root 3.7083 13.8014 -25.4157 1001.04 63.3792 -83.1106
lfemur -42.3457 12.3392 -17.655
ltibia 87.1584 0 0
lfoot -30.1743 29.7039 0
ltoes -38.3785 0 0
rfemur -59.3493 -19.7821 14.5679
rtibia 78.4114 0 0
rfoot -2.72414 -4.40035 0
rtoes 9.68853 0 0
lowerback 17.8956 0.471855 -4.47375
upperback -0.781244 -0.0466561 2.562
thorax -10.9856 0.341509 5.37896
lowerneck 5.91375 -16.2246 -16.2976
upperneck -0.381262 -22.8173 17.9635
head 2.61565 -11.5955 7.16684
lclavicle -1.63725e-14 1.74583e-14 0
lhumerus -47.5825 -53.629 116.516
lradius 100.019 0 0
lwrist 79.8312 0 0
lhand 9.13493 402.098 0
lfingers 7.12502 0 0
lthumb 34.3306 -650.898 0
rclavicle -1.63725e-14 1.74583e-14 0
rhumerus 35.3035 2.53321 -42.0977
rradius 82.8267 0 0
rwrist 19.0431 0 0
rhand -31.2595 -403.854 0
rfingers 7.12502 0 0
rthumb -4.53066 286.411 0
2560
root 3.6778 13.8086 -25.5501 1004.36 62.058 -79.8667
lfemur -42.6281 12.5059 -18.0653
ltibia 86.9009 0 0
lfoot -30.4558 29.9531 0
ltoes -38.3325 0 0
rfemur -59.517 -19.5285 14.9133
rtibia 79.5359 0 0
rfoot -3.05216 -5.22769 0
rtoes 9.82507 0 0
lowerback 17.9744 0.53199 -4.58526
upperback -0.767456 0.00122958 2.52558
thorax -11.022 0.370056 5.39114
lowerneck 5.9742 -16.3634 -16.3995
upperneck -0.395489 -23.0197 18.1869
head 2.64726 -11.6996 7.23799
lclavicle -1.52743e-14 1.71388e-14 0
lhumerus -47.3746 -54.1756 116.751
lradius 99.4748 0 0
lwrist 79.7627 0 0
lhand 9.1885 402.258 0
lfingers 7.12502 0 0
lthumb 34.3838 -650.723 0
rclavicle -1.52743e-14 1.71388e-14 0
rhumerus 37.1967 3.72339 -40.8663
rradius 83.3804 0 0
rwrist 18.5699 0 0
rhand -30.7701 -403.533 0
rfingers 7.12502 0 0
rthumb -4.05814 286.727 0
2561
root 3.64697 13.8161 -25.6844 1007.65 60.7111 -76.6484
lfemur -42.9039 12.6842 -18.4704
ltibia 86.6422 0 0
lfoot -30.7374 30.1942 0
ltoes -38.2823 0 0
rfemur -59.6788 -19.2859 15.2594
rtibia 80.6544 0 0
rfoot -3.3852 -6.05078 0
rtoes 9.95856 0 0
lowerback 18.0521 0.591505 -4.69876
upperback -0.754371 0.0479879 2.48979
thorax -11.0584 0.398215 5.40545
lowerneck 6.03174 -16.4975 -16.4984
upperneck -0.406905 -23.2156 18.405
head 2.67904 -11.8003 7.3072
lclavicle -1.41608e-14 1.67776e-14 0
lhumerus -47.1415 -54.7158 116.968
lradius 98.9397 0 0
lwrist 79.6894 0 0
lhand 9.23439 402.421 0
lfingers 7.12502 0 0
lthumb 34.4296 -650.545 0
rclavicle -1.41608e-14 1.67776e-14 0
rhumerus 39.0687 4.9111 -39.653
rradius 83.9371 0 0
rwrist 18.1114 0 0
rhand -30.283 -403.21 0
rfingers 7.12502 0 0
rthumb -3.58783 287.043 0
